<svg xmlns="http://www.w3.org/2000/svg" viewBox="0 0 241.04 53"><defs><style>.cls-1{fill:#fff;}.cls-2{isolation:isolate;}.cls-3{fill:#636363;}</style></defs><title>findme logo1</title><g id="find:me"><path d="M78.69,21.82c2.3,0,3.65.63,4,1.9a8.48,8.48,0,0,1,.3,2.5,7.55,7.55,0,0,1-.32,2.47,2.36,2.36,0,0,1-1,1.33,6.23,6.23,0,0,1-3,.6l-3.2-.2v13.4A6.38,6.38,0,0,1,75,46.64a2.36,2.36,0,0,1-1.45,1.23,8.79,8.79,0,0,1-2.53.3,7.55,7.55,0,0,1-2.47-.33,2.27,2.27,0,0,1-1.33-1.05,3.84,3.84,0,0,1-.47-1.32,15.06,15.06,0,0,1-.08-1.75V30.47h-1.8a3.17,3.17,0,0,1-1.85-.6c-.63-.64-1-1.85-1-3.65,0-2.74,1-4.1,2.95-4.1h1.65V19.47a10.33,10.33,0,0,1,2.75-7q2.76-3.12,8-3.12a14.79,14.79,0,0,1,1.73.07,4,4,0,0,1,1.32.48c.9.43,1.35,1.71,1.35,3.85a5.49,5.49,0,0,1-.85,3.45,3.08,3.08,0,0,1-2.2.9h-1.4c-1.23,0-1.85.41-1.85,1.25v2.75Zm15.53-4.93a2.1,2.1,0,0,1-1.33,1,8.58,8.58,0,0,1-2.52.3,8.7,8.7,0,0,1-2.53-.3,2.1,2.1,0,0,1-1.32-1.05,4.26,4.26,0,0,1-.45-1.33A14.24,14.24,0,0,1,86,13.82a14.43,14.43,0,0,1,.08-1.73,4.1,4.1,0,0,1,.42-1.27q.7-1.35,3.9-1.35c2.1,0,3.37.45,3.8,1.35a4,4,0,0,1,.48,1.32,14.9,14.9,0,0,1,.07,1.73,14.71,14.71,0,0,1-.07,1.72A4,4,0,0,1,94.22,16.89ZM86,26.17a14.43,14.43,0,0,1,.08-1.73,4.72,4.72,0,0,1,.42-1.32c.47-.87,1.77-1.3,3.9-1.3a5.25,5.25,0,0,1,3.4.85,2.72,2.72,0,0,1,.9,2.15,13.51,13.51,0,0,1,0,1.45v17.5a14.71,14.71,0,0,1-.07,1.72,3.93,3.93,0,0,1-.48,1.33c-.43.86-1.71,1.3-3.85,1.3s-3.38-.45-3.85-1.35a4.82,4.82,0,0,1-.42-1.3A14.22,14.22,0,0,1,86,43.72Z" transform="translate(-4 -4)"/><path d="M114.64,21.77A10.57,10.57,0,0,1,123,25.59a13.71,13.71,0,0,1,3.32,9.33v8.8a14.71,14.71,0,0,1-.07,1.72,3.94,3.94,0,0,1-.43,1.28q-.69,1.35-3.9,1.35c-2.36,0-3.73-.62-4.1-1.85a8.17,8.17,0,0,1-.3-2.55v-8.8a4,4,0,0,0-4.32-4.35,4.38,4.38,0,0,0-3.2,1.2,4.2,4.2,0,0,0-1.23,3.15v8.85a14.71,14.71,0,0,1-.07,1.72,3.51,3.51,0,0,1-.48,1.28c-.43.9-1.71,1.35-3.85,1.35s-3.38-.45-3.85-1.35a4.67,4.67,0,0,1-.42-1.33,14.24,14.24,0,0,1-.08-1.72V26a13.83,13.83,0,0,1,.08-1.68,3.62,3.62,0,0,1,.47-1.27c.47-.84,1.75-1.25,3.85-1.25s3.29.38,3.75,1.15a3.89,3.89,0,0,1,.5,2,5.26,5.26,0,0,1,.9-1,8.29,8.29,0,0,1,1.35-1A6.56,6.56,0,0,1,114.64,21.77Z" transform="translate(-4 -4)"/><path d="M149.22,10.79a2.12,2.12,0,0,1,1.32-1,8.7,8.7,0,0,1,2.53-.3,8.58,8.58,0,0,1,2.52.3,2.09,2.09,0,0,1,1.33,1.05,4.29,4.29,0,0,1,.45,1.32,14.9,14.9,0,0,1,.07,1.73V43.72a14.71,14.71,0,0,1-.07,1.72,3.51,3.51,0,0,1-.48,1.28c-.5.9-1.91,1.35-4.22,1.35s-3.61-.82-3.88-2.45a7.36,7.36,0,0,1-5.85,2.4,11.09,11.09,0,0,1-8.2-3.93,13.15,13.15,0,0,1,0-18.32q3.72-4,8.17-3.95a7,7,0,0,1,5.75,2.5V13.82a14.43,14.43,0,0,1,.08-1.73A4.12,4.12,0,0,1,149.22,10.79ZM141.09,38a4.22,4.22,0,0,0,3.15,1.35A4,4,0,0,0,147.32,38a4.36,4.36,0,0,0,1.22-3,4.62,4.62,0,0,0-1.17-3,3.92,3.92,0,0,0-3.18-1.4,4.06,4.06,0,0,0-3.2,1.37,4.52,4.52,0,0,0-1.2,3A4.26,4.26,0,0,0,141.09,38Z" transform="translate(-4 -4)"/><path d="M166.82,22.87c1.71,0,2.9.33,3.55,1s1,1.91,1,3.75q0,1.2-.12,1.77a4,4,0,0,1-.53,1.38c-.5,1-1.76,1.45-3.77,1.45s-3.35-.33-4-1-1-1.91-1-3.77.35-3.17,1.05-3.7A6.6,6.6,0,0,1,166.82,22.87Zm0,16c1.71,0,2.9.32,3.55,1s1,1.91,1,3.78q0,1.2-.12,1.77a4,4,0,0,1-.53,1.38c-.5,1-1.76,1.45-3.77,1.45s-3.35-.33-4-1-1-1.91-1-3.77.35-3.17,1.05-3.7A6.6,6.6,0,0,1,166.82,38.82Z" transform="translate(-4 -4)"/><path class="cls-1" d="M184.44,25.27q2.35-3.56,5.65-3.55a8.19,8.19,0,0,1,7.6,4.35A17.2,17.2,0,0,1,199,24.49a10.8,10.8,0,0,1,2.47-1.8,7,7,0,0,1,3.5-1,8.55,8.55,0,0,1,6.7,3.07q2.7,3.08,2.7,10.18v8.75a14.71,14.71,0,0,1-.07,1.72,3.93,3.93,0,0,1-.48,1.33c-.43.9-1.71,1.35-3.85,1.35s-3.38-.47-3.85-1.4a4.67,4.67,0,0,1-.42-1.33,14.24,14.24,0,0,1-.08-1.72V34.92q0-4.35-3.1-4.35a2.44,2.44,0,0,0-2.37,1.15,6.84,6.84,0,0,0-.63,3.25v8.75a14.73,14.73,0,0,1-.07,1.75,4,4,0,0,1-.48,1.3q-.69,1.35-3.9,1.35c-2.1,0-3.38-.47-3.85-1.4a4.67,4.67,0,0,1-.42-1.33,14.24,14.24,0,0,1-.08-1.72V34.92q0-4.35-3.1-4.35t-3,4.35v8.85a14.71,14.71,0,0,1-.07,1.72,3.93,3.93,0,0,1-.48,1.33c-.5.86-1.8,1.3-3.9,1.3s-3.38-.45-3.85-1.35a4.82,4.82,0,0,1-.42-1.3,14.22,14.22,0,0,1-.08-1.75V26.12a14.43,14.43,0,0,1,.08-1.73,3.62,3.62,0,0,1,.47-1.27c.5-.9,1.69-1.35,3.55-1.35s3.09.3,3.65.9A3.62,3.62,0,0,1,184.44,25.27Z" transform="translate(-4 -4)"/><path class="cls-1" d="M245,31.79a6.09,6.09,0,0,1-1.52,4.55,4.74,4.74,0,0,1-3.38,1.48H228.29a2.75,2.75,0,0,0,1.65,2.35,6.6,6.6,0,0,0,3.3.95,13.78,13.78,0,0,0,4.55-.6l.55-.2a5,5,0,0,1,2-.55c1.07,0,2,.75,2.75,2.25a5.39,5.39,0,0,1,.65,2.3q0,4.44-10.65,4.45a16,16,0,0,1-6.57-1.28A11.18,11.18,0,0,1,222,44.12a14.38,14.38,0,0,1-3.15-9A13.08,13.08,0,0,1,223,25a14.41,14.41,0,0,1,10.17-3.77c4.64,0,8,1.63,10.2,4.9A10.09,10.09,0,0,1,245,31.79Zm-10.55,1.48c1.27,0,1.9-.54,1.9-1.6a2.24,2.24,0,0,0-.87-1.85,3.92,3.92,0,0,0-2.5-.7,5.07,5.07,0,0,0-3.23,1.32,3.76,3.76,0,0,0-1.6,2.83Z" transform="translate(-4 -4)"/></g><g id="Ellipse_1" data-name="Ellipse 1" class="cls-2"><g id="Ellipse_1-2" data-name="Ellipse 1"><circle class="cls-3" cx="26.5" cy="26.5" r="26.5"/></g></g><g id="f:m"><path d="M20.23,25.68q1.59,0,1.86.87a3.75,3.75,0,0,1,.14,1.16,3.47,3.47,0,0,1-.15,1.13,1,1,0,0,1-.47.61,2.79,2.79,0,0,1-1.4.28l-1.47-.09V35.8a3,3,0,0,1-.22,1.3,1.1,1.1,0,0,1-.67.56,3.79,3.79,0,0,1-1.16.14,3.49,3.49,0,0,1-1.14-.15,1.07,1.07,0,0,1-.61-.48,2,2,0,0,1-.22-.61,8,8,0,0,1,0-.81V29.66h-.83a1.37,1.37,0,0,1-.85-.28,2.39,2.39,0,0,1-.44-1.67c0-1.26.45-1.89,1.36-1.89h.76V24.6A4.76,4.76,0,0,1,16,21.39,4.62,4.62,0,0,1,19.61,20a7,7,0,0,1,.79,0,1.62,1.62,0,0,1,.61.22c.42.2.62.79.62,1.77a2.53,2.53,0,0,1-.39,1.58,1.38,1.38,0,0,1-1,.42h-.64c-.57,0-.85.19-.85.57v1.27Z" transform="translate(-4 -4)"/><path d="M26,26.16a2.28,2.28,0,0,1,1.63.46,2.51,2.51,0,0,1,.45,1.73,6.47,6.47,0,0,1-.06.82,1.8,1.8,0,0,1-.24.63c-.23.44-.81.66-1.73.66A2.67,2.67,0,0,1,24.18,30a2.49,2.49,0,0,1-.45-1.74c0-.89.16-1.46.48-1.7A3,3,0,0,1,26,26.16Zm0,7.34A2.29,2.29,0,0,1,27.6,34a2.49,2.49,0,0,1,.45,1.74,6.28,6.28,0,0,1-.06.81,1.67,1.67,0,0,1-.24.63c-.23.45-.81.67-1.73.67a2.66,2.66,0,0,1-1.84-.45,2.46,2.46,0,0,1-.45-1.73c0-.89.16-1.46.48-1.7A3,3,0,0,1,26,33.5Z" transform="translate(-4 -4)"/><path class="cls-1" d="M34.08,27.27a3.1,3.1,0,0,1,2.6-1.64,3.77,3.77,0,0,1,3.49,2,7.37,7.37,0,0,1,.61-.73,5.25,5.25,0,0,1,1.14-.83,3.19,3.19,0,0,1,1.61-.45,4,4,0,0,1,3.08,1.42c.83.94,1.24,2.5,1.24,4.68v4a7.77,7.77,0,0,1,0,.8,1.89,1.89,0,0,1-.22.61c-.2.41-.79.62-1.77.62s-1.56-.22-1.77-.65a2.21,2.21,0,0,1-.2-.6,7.91,7.91,0,0,1,0-.8v-4c0-1.34-.48-2-1.43-2a1.12,1.12,0,0,0-1.09.53A3.17,3.17,0,0,0,41,31.73v4a7.73,7.73,0,0,1,0,.81,2.12,2.12,0,0,1-.22.6c-.22.41-.81.62-1.79.62s-1.56-.22-1.78-.65a2.15,2.15,0,0,1-.19-.6,7.33,7.33,0,0,1,0-.8v-4c0-1.34-.47-2-1.42-2s-1.38.66-1.38,2v4.07a5.19,5.19,0,0,1,0,.79,1.77,1.77,0,0,1-.21.61q-.35.6-1.8.6c-1,0-1.56-.21-1.77-.62a2.33,2.33,0,0,1-.2-.6,7.73,7.73,0,0,1,0-.81V27.66a7.55,7.55,0,0,1,0-.79,1.79,1.79,0,0,1,.22-.59c.23-.42.78-.62,1.64-.62a2.46,2.46,0,0,1,1.68.41A1.7,1.7,0,0,1,34.08,27.27Z" transform="translate(-4 -4)"/></g></svg>